<svg width="360" height="351" viewBox="0 0 360 351" fill="none" xmlns="http://www.w3.org/2000/svg">
<path fill-rule="evenodd" clip-rule="evenodd" d="M395.744 -81.3434C412.997 -21.3523 481.054 27.5451 464.76 87.8038C448.611 147.527 379.289 178.051 320.441 197.147C268.411 214.029 215.412 186.152 160.713 186.462C93.9661 186.84 11.3936 247.888 -34.2177 199.155C-81.0682 149.098 -11.8011 68.0152 -14.2743 -0.501471C-16.1488 -52.4326 -63.8861 -99.994 -46.7872 -149.065C-29.3907 -198.991 27.1967 -220.155 72.0286 -248.178C119.544 -277.879 165.1 -318.449 221.101 -316.514C278.943 -314.516 336.6 -284.313 371.106 -237.847C403.382 -194.386 380.782 -133.37 395.744 -81.3434Z" fill="#AAD9CE"/>
<path fill-rule="evenodd" clip-rule="evenodd" d="M509.072 72.3404C522.984 120.716 577.864 160.146 564.725 208.737C551.702 256.897 495.803 281.511 448.349 296.909C406.393 310.523 363.656 288.043 319.548 288.293C265.725 288.598 199.14 337.826 162.36 298.529C124.581 258.164 180.436 192.78 178.442 137.53C176.93 95.6535 138.436 57.301 152.224 17.7311C166.253 -22.5278 211.883 -39.5941 248.035 -62.1914C286.35 -86.1412 323.086 -118.856 368.244 -117.296C414.886 -115.685 461.38 -91.3296 489.205 -53.8607C515.231 -18.8143 497.006 30.3875 509.072 72.3404Z" fill="#D4ECE7"/>
<g clip-path="url(#clip0_3_251)">
<path d="M189.25 243.25H170.75C168.355 243.25 166.414 241.309 166.414 238.914V209.369C166.414 208.023 167.04 206.752 168.108 205.931C169.175 205.111 170.563 204.832 171.866 205.179C177.202 206.6 182.798 206.6 188.134 205.179C189.435 204.833 190.824 205.111 191.892 205.931C192.96 206.752 193.586 208.022 193.586 209.369V238.914C193.586 241.309 191.645 243.25 189.25 243.25Z" fill="#FDCD79"/>
<path d="M189.25 243.25C191.645 243.25 193.586 241.309 193.586 238.914V209.369C193.586 208.022 192.96 206.752 191.892 205.931C190.825 205.11 189.435 204.832 188.134 205.179C185.466 205.889 182.733 206.245 180 206.245V243.25H189.25Z" fill="#FCAC1F"/>
<path d="M221.625 271H138.375C135.98 271 134.039 269.059 134.039 266.664V252.5C134.039 245.009 140.134 238.914 147.625 238.914H212.375C219.866 238.914 225.961 245.009 225.961 252.5V266.664C225.961 269.059 224.02 271 221.625 271Z" fill="#464646"/>
<path d="M212.375 238.914H180V271H221.625C224.02 271 225.961 269.059 225.961 266.664V252.5C225.961 245.009 219.866 238.914 212.375 238.914Z" fill="#464646"/>
<path d="M225.961 253.656V248.164C225.961 240.673 219.866 234.578 212.375 234.578H147.625C140.134 234.578 134.039 240.673 134.039 248.164V253.656H225.961Z" fill="#FDCD79"/>
<path d="M212.375 234.578H180V253.656H225.961V248.164C225.961 240.673 219.866 234.578 212.375 234.578Z" fill="#FCAC1F"/>
<path d="M150.81 192.086C150.81 194.481 148.869 196.422 146.475 196.422H133.461C118.319 196.422 106 184.103 106 168.961V145.836C106 143.441 107.941 141.5 110.336 141.5H129.125C131.52 141.5 133.462 143.441 133.462 145.836C133.462 148.231 131.522 150.172 129.128 150.172H114.672V168.961C114.672 179.321 123.101 187.75 133.461 187.75H146.475C148.869 187.75 150.81 189.691 150.81 192.086Z" fill="#FDCD79"/>
<path d="M254 168.961C254 184.103 241.681 196.422 226.539 196.422H213.653C211.258 196.422 209.317 194.481 209.317 192.086C209.317 189.691 211.258 187.75 213.653 187.75H226.539C236.9 187.75 245.328 179.321 245.328 168.961V150.172H230.875C228.481 150.172 226.538 148.231 226.538 145.836C226.538 143.441 228.478 141.5 230.872 141.5H249.664C252.059 141.5 254 143.441 254 145.836V168.961Z" fill="#FCAC1F"/>
<path d="M230.875 123H129.125C126.732 123 124.789 124.943 124.789 127.336V145.801C124.789 145.9 124.792 145.998 124.801 146.096C124.804 146.154 124.809 146.209 124.815 146.264C124.818 146.307 124.821 146.348 124.827 146.388C125.101 148.521 126.922 150.172 129.128 150.172H230.872C233.092 150.172 234.922 148.504 235.176 146.353C235.182 146.322 235.185 146.29 235.185 146.258C235.191 146.22 235.194 146.18 235.196 146.142C235.199 146.108 235.202 146.076 235.202 146.041C235.208 146.018 235.208 145.995 235.208 145.969C235.211 145.911 235.211 145.856 235.211 145.801V127.336C235.211 124.943 233.268 123 230.875 123Z" fill="#FDCD79"/>
<path d="M230.872 150.172C233.092 150.172 234.922 148.504 235.176 146.353C235.182 146.322 235.185 146.29 235.185 146.258C235.191 146.22 235.194 146.18 235.196 146.142C235.199 146.108 235.202 146.076 235.202 146.041C235.208 146.018 235.208 145.995 235.208 145.969C235.211 145.911 235.211 145.856 235.211 145.801V127.336C235.211 124.943 233.268 123 230.875 123H180V150.172H230.872Z" fill="#FCAC1F"/>
<path d="M124.789 141.5V145.801C124.789 145.9 124.792 145.998 124.801 146.096C124.804 146.154 124.809 146.209 124.815 146.264C124.818 146.307 124.821 146.348 124.827 146.388C126.448 164.972 132.811 182.148 142.749 194.768C150.334 204.403 159.63 210.901 169.634 213.558C173.031 214.462 176.517 214.922 180 214.922C183.483 214.922 186.969 214.462 190.363 213.56C200.37 210.901 209.666 204.403 217.251 194.768C227.195 182.139 233.56 164.949 235.176 146.353C235.182 146.322 235.185 146.29 235.185 146.258C235.194 146.186 235.199 146.113 235.202 146.041C235.208 146.018 235.208 145.995 235.208 145.969C235.211 145.911 235.211 145.856 235.211 145.801V141.5H124.789Z" fill="#FDCD79"/>
<path d="M180 214.922C183.483 214.922 186.969 214.462 190.363 213.56C200.37 210.901 209.666 204.403 217.251 194.768C227.195 182.139 233.56 164.949 235.176 146.353C235.182 146.322 235.185 146.29 235.185 146.258C235.194 146.186 235.199 146.113 235.202 146.041C235.208 146.018 235.208 145.995 235.208 145.969C235.211 145.911 235.211 145.856 235.211 145.801V141.5H180V214.922Z" fill="#FCAC1F"/>
</g>
<defs>
<clipPath id="clip0_3_251">
<rect width="148" height="148" fill="white" transform="translate(106 123)"/>
</clipPath>
</defs>
</svg>
